<mxfile host="Electron" modified="2024-06-17T09:56:06.522Z" agent="Mozilla/5.0 (Windows NT 10.0; Win64; x64) AppleWebKit/537.36 (KHTML, like Gecko) draw.io/24.5.3 Chrome/124.0.6367.207 Electron/30.0.6 Safari/537.36" etag="ldvmL3Ia9o2IhvIs97Ui" version="24.5.3" type="device">
  <diagram name="Pagina-1" id="sYcDckFlsrlkDP-1W3FF">
    <mxGraphModel dx="1295" dy="1927" grid="1" gridSize="10" guides="1" tooltips="1" connect="1" arrows="1" fold="1" page="1" pageScale="1" pageWidth="827" pageHeight="1169" math="0" shadow="0">
      <root>
        <mxCell id="0" />
        <mxCell id="1" parent="0" />
        <mxCell id="kSCZr5z-TJ9Q9wVV0tbq-2" value="Utente" style="rounded=0;whiteSpace=wrap;html=1;fontFamily=Helvetica;" parent="1" vertex="1">
          <mxGeometry x="204" y="271" width="120" height="60" as="geometry" />
        </mxCell>
        <mxCell id="kSCZr5z-TJ9Q9wVV0tbq-3" value="" style="line;strokeWidth=1;rotatable=0;dashed=0;labelPosition=right;align=left;verticalAlign=middle;spacingTop=0;spacingLeft=6;points=[];portConstraint=eastwest;" parent="1" vertex="1">
          <mxGeometry x="144" y="281" width="60" height="10" as="geometry" />
        </mxCell>
        <mxCell id="kSCZr5z-TJ9Q9wVV0tbq-4" value="" style="ellipse;whiteSpace=wrap;html=1;aspect=fixed;" parent="1" vertex="1">
          <mxGeometry x="133" y="280" width="11" height="11" as="geometry" />
        </mxCell>
        <mxCell id="kSCZr5z-TJ9Q9wVV0tbq-5" value="" style="line;strokeWidth=1;rotatable=0;dashed=0;labelPosition=right;align=left;verticalAlign=middle;spacingTop=0;spacingLeft=6;points=[];portConstraint=eastwest;" parent="1" vertex="1">
          <mxGeometry x="144" y="311" width="60" height="10" as="geometry" />
        </mxCell>
        <mxCell id="kSCZr5z-TJ9Q9wVV0tbq-6" value="" style="ellipse;whiteSpace=wrap;html=1;aspect=fixed;" parent="1" vertex="1">
          <mxGeometry x="133" y="310" width="11" height="11" as="geometry" />
        </mxCell>
        <mxCell id="kSCZr5z-TJ9Q9wVV0tbq-9" value="" style="line;strokeWidth=1;rotatable=0;dashed=0;labelPosition=right;align=left;verticalAlign=middle;spacingTop=0;spacingLeft=6;points=[];portConstraint=eastwest;flipV=1;direction=south;" parent="1" vertex="1">
          <mxGeometry x="220" y="211" width="10" height="60" as="geometry" />
        </mxCell>
        <mxCell id="kSCZr5z-TJ9Q9wVV0tbq-10" value="" style="ellipse;whiteSpace=wrap;html=1;aspect=fixed;flipV=1;direction=south;labelBackgroundColor=none;fillColor=#171717;" parent="1" vertex="1">
          <mxGeometry x="219" y="200" width="11" height="11" as="geometry" />
        </mxCell>
        <mxCell id="kSCZr5z-TJ9Q9wVV0tbq-11" value="admin" style="text;html=1;align=center;verticalAlign=middle;whiteSpace=wrap;rounded=0;" parent="1" vertex="1">
          <mxGeometry x="70" y="271" width="60" height="30" as="geometry" />
        </mxCell>
        <mxCell id="kSCZr5z-TJ9Q9wVV0tbq-12" value="password" style="text;html=1;align=center;verticalAlign=middle;whiteSpace=wrap;rounded=0;" parent="1" vertex="1">
          <mxGeometry x="70" y="301" width="60" height="30" as="geometry" />
        </mxCell>
        <mxCell id="kSCZr5z-TJ9Q9wVV0tbq-13" value="id" style="text;html=1;align=center;verticalAlign=middle;whiteSpace=wrap;rounded=0;" parent="1" vertex="1">
          <mxGeometry x="195" y="170" width="60" height="30" as="geometry" />
        </mxCell>
        <mxCell id="kSCZr5z-TJ9Q9wVV0tbq-15" value="0,1" style="text;html=1;align=center;verticalAlign=middle;whiteSpace=wrap;rounded=0;" parent="1" vertex="1">
          <mxGeometry x="410" y="271" width="60" height="30" as="geometry" />
        </mxCell>
        <mxCell id="kSCZr5z-TJ9Q9wVV0tbq-16" value="Login" style="rhombus;whiteSpace=wrap;html=1;" parent="1" vertex="1">
          <mxGeometry x="533.5" y="261" width="80" height="80" as="geometry" />
        </mxCell>
        <mxCell id="kSCZr5z-TJ9Q9wVV0tbq-22" value="" style="endArrow=none;html=1;rounded=0;entryX=0;entryY=0.5;entryDx=0;entryDy=0;" parent="1" target="kSCZr5z-TJ9Q9wVV0tbq-16" edge="1">
          <mxGeometry relative="1" as="geometry">
            <mxPoint x="324" y="301" as="sourcePoint" />
            <mxPoint x="484" y="301" as="targetPoint" />
          </mxGeometry>
        </mxCell>
        <mxCell id="kSCZr5z-TJ9Q9wVV0tbq-23" value="GPS Home" style="shape=ext;margin=3;double=1;whiteSpace=wrap;html=1;align=center;" parent="1" vertex="1">
          <mxGeometry x="830" y="271" width="120" height="60" as="geometry" />
        </mxCell>
        <mxCell id="kSCZr5z-TJ9Q9wVV0tbq-24" value="" style="endArrow=none;html=1;rounded=0;entryX=0;entryY=0.5;entryDx=0;entryDy=0;" parent="1" target="kSCZr5z-TJ9Q9wVV0tbq-23" edge="1">
          <mxGeometry relative="1" as="geometry">
            <mxPoint x="613.5" y="301" as="sourcePoint" />
            <mxPoint x="823.5" y="301" as="targetPoint" />
          </mxGeometry>
        </mxCell>
        <mxCell id="kSCZr5z-TJ9Q9wVV0tbq-25" value="1,1" style="text;html=1;align=center;verticalAlign=middle;whiteSpace=wrap;rounded=0;" parent="1" vertex="1">
          <mxGeometry x="710" y="270.5" width="60" height="30" as="geometry" />
        </mxCell>
        <mxCell id="kSCZr5z-TJ9Q9wVV0tbq-27" value="Visualizza" style="rhombus;whiteSpace=wrap;html=1;" parent="1" vertex="1">
          <mxGeometry x="850" y="400" width="80" height="80" as="geometry" />
        </mxCell>
        <mxCell id="kSCZr5z-TJ9Q9wVV0tbq-28" value="" style="endArrow=none;html=1;rounded=0;entryX=0.5;entryY=1;entryDx=0;entryDy=0;exitX=0.5;exitY=0;exitDx=0;exitDy=0;" parent="1" source="kSCZr5z-TJ9Q9wVV0tbq-27" target="kSCZr5z-TJ9Q9wVV0tbq-23" edge="1">
          <mxGeometry relative="1" as="geometry">
            <mxPoint x="610" y="500" as="sourcePoint" />
            <mxPoint x="826.5" y="500" as="targetPoint" />
          </mxGeometry>
        </mxCell>
        <mxCell id="kSCZr5z-TJ9Q9wVV0tbq-29" value="" style="endArrow=none;html=1;rounded=0;exitX=0.5;exitY=0;exitDx=0;exitDy=0;" parent="1" edge="1">
          <mxGeometry relative="1" as="geometry">
            <mxPoint x="889.71" y="540" as="sourcePoint" />
            <mxPoint x="890" y="480" as="targetPoint" />
          </mxGeometry>
        </mxCell>
        <mxCell id="kSCZr5z-TJ9Q9wVV0tbq-30" value="0,1" style="text;html=1;align=center;verticalAlign=middle;whiteSpace=wrap;rounded=0;fontFamily=Helvetica;fontSize=12;fontColor=default;" parent="1" vertex="1">
          <mxGeometry x="830" y="350" width="60" height="30" as="geometry" />
        </mxCell>
        <mxCell id="kSCZr5z-TJ9Q9wVV0tbq-31" value="1,1" style="text;html=1;align=center;verticalAlign=middle;whiteSpace=wrap;rounded=0;" parent="1" vertex="1">
          <mxGeometry x="830" y="490" width="60" height="30" as="geometry" />
        </mxCell>
        <mxCell id="kSCZr5z-TJ9Q9wVV0tbq-33" value="Visualizza" style="rhombus;whiteSpace=wrap;html=1;" parent="1" vertex="1">
          <mxGeometry x="850" y="110" width="80" height="80" as="geometry" />
        </mxCell>
        <mxCell id="kSCZr5z-TJ9Q9wVV0tbq-34" value="" style="endArrow=none;html=1;rounded=0;exitX=0.5;exitY=0;exitDx=0;exitDy=0;" parent="1" source="kSCZr5z-TJ9Q9wVV0tbq-23" edge="1">
          <mxGeometry relative="1" as="geometry">
            <mxPoint x="890" y="259" as="sourcePoint" />
            <mxPoint x="890" y="190" as="targetPoint" />
          </mxGeometry>
        </mxCell>
        <mxCell id="kSCZr5z-TJ9Q9wVV0tbq-36" value="Posizione Attuale" style="shape=ext;margin=3;double=1;whiteSpace=wrap;html=1;align=center;" parent="1" vertex="1">
          <mxGeometry x="830" y="-20" width="120" height="60" as="geometry" />
        </mxCell>
        <mxCell id="kSCZr5z-TJ9Q9wVV0tbq-37" value="" style="endArrow=none;html=1;rounded=0;exitX=0.5;exitY=0;exitDx=0;exitDy=0;" parent="1" edge="1">
          <mxGeometry relative="1" as="geometry">
            <mxPoint x="890" y="110" as="sourcePoint" />
            <mxPoint x="890" y="40" as="targetPoint" />
          </mxGeometry>
        </mxCell>
        <mxCell id="RSxexjtRmVl-xZcPyvN2-1" value="0,1" style="text;html=1;align=center;verticalAlign=middle;whiteSpace=wrap;rounded=0;fontFamily=Helvetica;fontSize=12;fontColor=default;" parent="1" vertex="1">
          <mxGeometry x="830" y="211" width="60" height="30" as="geometry" />
        </mxCell>
        <mxCell id="RSxexjtRmVl-xZcPyvN2-2" value="1,1" style="text;html=1;align=center;verticalAlign=middle;whiteSpace=wrap;rounded=0;" parent="1" vertex="1">
          <mxGeometry x="830" y="70" width="60" height="30" as="geometry" />
        </mxCell>
        <mxCell id="XJ43lPYV3epzVSGQccQa-1" value="Posizioni" style="rounded=0;whiteSpace=wrap;html=1;fontFamily=Helvetica;" vertex="1" parent="1">
          <mxGeometry x="830" y="540" width="120" height="60" as="geometry" />
        </mxCell>
        <mxCell id="XJ43lPYV3epzVSGQccQa-2" value="" style="ellipse;whiteSpace=wrap;html=1;aspect=fixed;flipV=1;direction=south;labelBackgroundColor=none;fillColor=#171717;" vertex="1" parent="1">
          <mxGeometry x="743" y="550" width="11" height="11" as="geometry" />
        </mxCell>
        <mxCell id="XJ43lPYV3epzVSGQccQa-3" value="" style="endArrow=none;html=1;rounded=0;fontFamily=Helvetica;fontSize=12;fontColor=default;entryX=0.5;entryY=0;entryDx=0;entryDy=0;exitX=0;exitY=0.25;exitDx=0;exitDy=0;" edge="1" parent="1" source="XJ43lPYV3epzVSGQccQa-1" target="XJ43lPYV3epzVSGQccQa-2">
          <mxGeometry width="50" height="50" relative="1" as="geometry">
            <mxPoint x="787.5" y="590" as="sourcePoint" />
            <mxPoint x="837.5" y="540" as="targetPoint" />
          </mxGeometry>
        </mxCell>
        <mxCell id="XJ43lPYV3epzVSGQccQa-4" value="" style="ellipse;whiteSpace=wrap;html=1;aspect=fixed;" vertex="1" parent="1">
          <mxGeometry x="914.5" y="660" width="11" height="11" as="geometry" />
        </mxCell>
        <mxCell id="XJ43lPYV3epzVSGQccQa-5" value="" style="endArrow=none;html=1;rounded=0;fontFamily=Helvetica;fontSize=12;fontColor=default;entryX=0.5;entryY=0;entryDx=0;entryDy=0;exitX=0.75;exitY=1;exitDx=0;exitDy=0;" edge="1" parent="1" source="XJ43lPYV3epzVSGQccQa-1" target="XJ43lPYV3epzVSGQccQa-4">
          <mxGeometry width="50" height="50" relative="1" as="geometry">
            <mxPoint x="787.5" y="630" as="sourcePoint" />
            <mxPoint x="837.5" y="580" as="targetPoint" />
          </mxGeometry>
        </mxCell>
        <mxCell id="XJ43lPYV3epzVSGQccQa-6" value="id" style="text;html=1;align=center;verticalAlign=middle;whiteSpace=wrap;rounded=0;fontFamily=Helvetica;fontSize=12;fontColor=default;" vertex="1" parent="1">
          <mxGeometry x="683" y="540.5" width="60" height="30" as="geometry" />
        </mxCell>
        <mxCell id="XJ43lPYV3epzVSGQccQa-7" value="lat" style="text;html=1;align=center;verticalAlign=middle;whiteSpace=wrap;rounded=0;fontFamily=Helvetica;fontSize=12;fontColor=default;" vertex="1" parent="1">
          <mxGeometry x="890" y="671" width="60" height="30" as="geometry" />
        </mxCell>
        <mxCell id="XJ43lPYV3epzVSGQccQa-8" value="" style="endArrow=none;html=1;rounded=0;fontFamily=Helvetica;fontSize=12;fontColor=default;exitX=0.25;exitY=1;exitDx=0;exitDy=0;" edge="1" parent="1" source="XJ43lPYV3epzVSGQccQa-9">
          <mxGeometry width="50" height="50" relative="1" as="geometry">
            <mxPoint x="770" y="650" as="sourcePoint" />
            <mxPoint x="860" y="660" as="targetPoint" />
          </mxGeometry>
        </mxCell>
        <mxCell id="XJ43lPYV3epzVSGQccQa-10" value="" style="endArrow=none;html=1;rounded=0;fontFamily=Helvetica;fontSize=12;fontColor=default;exitX=0.25;exitY=1;exitDx=0;exitDy=0;" edge="1" parent="1" source="XJ43lPYV3epzVSGQccQa-1" target="XJ43lPYV3epzVSGQccQa-9">
          <mxGeometry width="50" height="50" relative="1" as="geometry">
            <mxPoint x="860" y="600" as="sourcePoint" />
            <mxPoint x="860" y="660" as="targetPoint" />
          </mxGeometry>
        </mxCell>
        <mxCell id="XJ43lPYV3epzVSGQccQa-9" value="" style="ellipse;whiteSpace=wrap;html=1;aspect=fixed;" vertex="1" parent="1">
          <mxGeometry x="854.5" y="660" width="11" height="11" as="geometry" />
        </mxCell>
        <mxCell id="XJ43lPYV3epzVSGQccQa-11" value="lg" style="text;html=1;align=center;verticalAlign=middle;whiteSpace=wrap;rounded=0;fontFamily=Helvetica;fontSize=12;fontColor=default;" vertex="1" parent="1">
          <mxGeometry x="830" y="671" width="60" height="30" as="geometry" />
        </mxCell>
      </root>
    </mxGraphModel>
  </diagram>
</mxfile>
